<?xml version="1.0" encoding="UTF-8" standalone="no"?>
<svg width="203px" height="83px" viewBox="0 0 203 83" version="1.1" xmlns="http://www.w3.org/2000/svg" xmlns:xlink="http://www.w3.org/1999/xlink">
    <!-- Generator: Sketch 39.1 (31720) - http://www.bohemiancoding.com/sketch -->
    <title>Slice 1</title>
    <desc>Created with Sketch.</desc>
    <defs></defs>
    <g id="Page-1" stroke="none" stroke-width="1" fill="none" fill-rule="evenodd">
        <g id="EPS-RGB">
            <path d="M27.082,82.653 C21.835,82.666 17.381,81.184 13.743,79.358 C4.828,74.882 0.404,67.014 0.404,55.897 C0.404,44.783 4.85,36.963 13.743,32.439 C17.405,30.66 21.85,29.56 27.082,29.143 L69.451,29.143 C72.066,29.143 74.107,30.241 75.571,32.439 C77.035,34.635 77.767,37.198 77.767,40.127 C77.767,43.057 77.035,45.62 75.571,47.817 C74.107,50.013 72.066,51.112 69.451,51.112 L27.082,51.112 C23.942,51.112 22.374,52.708 22.374,55.897 C22.374,59.089 23.942,60.694 27.082,60.685 L99.876,60.486 C102.491,60.479 104.532,61.586 105.996,63.782 C107.458,65.978 108.193,68.541 108.193,71.47 C108.193,74.4 107.46,76.963 105.996,79.16 C104.532,81.356 102.49,82.449 99.876,82.455 L27.082,82.653" id="Fill-1" fill="#01933F"></path>
            <path d="M180.865,74.676 L180.865,37.119 C180.865,34.504 181.964,32.491 184.16,31.027 C186.358,29.56 188.921,28.829 191.85,28.829 C194.778,28.829 197.341,29.56 199.54,31.027 C201.736,32.491 202.835,34.504 202.835,37.119 L202.835,74.676 C202.835,77.291 201.736,79.306 199.54,80.77 C197.341,82.234 194.778,82.967 191.85,82.967 C188.921,82.967 186.358,82.234 184.16,80.77 C181.964,79.306 180.865,77.291 180.865,74.676" id="Fill-2" fill="#01933F"></path>
            <path d="M191.85,22.866 C188.816,22.866 186.227,21.793 184.082,19.649 C181.938,17.504 180.865,14.915 180.865,11.881 C180.865,8.847 181.938,6.258 184.082,4.113 C186.227,1.969 188.816,0.898 191.85,0.898 C194.884,0.898 197.473,1.969 199.617,4.113 C201.762,6.258 202.835,8.847 202.835,11.881 C202.835,14.915 201.762,17.504 199.617,19.649 C197.473,21.793 194.884,22.866 191.85,22.866" id="Fill-3" fill="#83C21F"></path>
            <path d="M149.481,74.65 L149.481,55.82 C149.481,52.682 147.911,51.112 144.773,51.112 L113.389,51.112 C102.301,51.112 94.505,46.666 90.007,37.773 C88.229,34.113 87.13,29.666 86.711,24.436 L86.711,11.881 C86.711,9.266 87.811,7.225 90.007,5.761 C92.205,4.297 94.768,3.565 97.697,3.565 C100.625,3.565 103.188,4.297 105.386,5.761 C107.583,7.225 108.682,9.266 108.682,11.881 L108.682,24.436 C108.682,27.574 110.25,29.143 113.389,29.143 L144.773,29.143 C150.004,29.56 154.45,30.66 158.112,32.439 C167.005,36.937 171.451,44.731 171.451,55.82 L171.451,74.65 C171.451,77.266 170.352,79.306 168.156,80.77 C165.958,82.234 163.395,82.967 160.466,82.967 C157.536,82.967 154.973,82.234 152.776,80.77 C150.58,79.306 149.481,77.266 149.481,74.65" id="Fill-4" fill="#01933F"></path>
        </g>
    </g>
</svg>